<?xml version="1.0" encoding="UTF-8"?>
<svg id="Layer_1" data-name="Layer 1" xmlns="http://www.w3.org/2000/svg" viewBox="0 0 562.15 253.57">
  <defs>
    <style>
      .cls-1 {
        fill: #d8d13c;
      }
    </style>
  </defs>
  <g>
    <path class="cls-1" d="M216.47,95.94c-.68.29-1.4.6-2.27.86-.12-1.1-.2-2.21-.27-3.32.43-.16.84-.33,1.26-.51,1.53-.66,3.27-1.41,6.57-1.41s5.04.75,6.57,1.41c1.43.61,2.66,1.15,5.29,1.15s3.86-.53,5.29-1.15c1.53-.66,3.27-1.41,6.57-1.41s5.04.75,6.57,1.41c1.43.61,2.66,1.15,5.29,1.15s3.86-.53,5.29-1.15c1.53-.66,3.27-1.41,6.57-1.41s5.04.75,6.57,1.41c1.43.61,2.66,1.15,5.29,1.15s3.86-.53,5.29-1.15c1.53-.66,3.27-1.41,6.57-1.41s5.04.75,6.57,1.41c1.43.61,2.66,1.15,5.29,1.15s3.86-.53,5.29-1.15c1.53-.66,3.27-1.41,6.57-1.41s5.04.75,6.57,1.41c1.43.61,2.66,1.15,5.29,1.15s3.86-.53,5.29-1.15c1.53-.66,3.27-1.41,6.57-1.41s5.04.75,6.57,1.41c.42.18.83.36,1.26.51-.06,1.11-.15,2.22-.27,3.32-.88-.25-1.6-.56-2.28-.86-1.43-.61-2.66-1.15-5.29-1.15s-3.86.53-5.29,1.15c-1.53.66-3.27,1.41-6.57,1.41s-5.04-.75-6.57-1.41c-1.43-.61-2.66-1.15-5.29-1.15s-3.86.53-5.29,1.15c-1.53.66-3.27,1.41-6.57,1.41s-5.04-.75-6.57-1.41c-1.43-.61-2.66-1.15-5.29-1.15s-3.86.53-5.29,1.15c-1.53.66-3.27,1.41-6.57,1.41s-5.04-.75-6.57-1.41c-1.43-.61-2.66-1.15-5.29-1.15s-3.86.53-5.29,1.15c-1.53.66-3.27,1.41-6.57,1.41s-5.04-.75-6.57-1.41c-1.43-.61-2.66-1.15-5.29-1.15s-3.86.53-5.29,1.15c-1.53.66-3.27,1.41-6.57,1.41s-5.04-.75-6.57-1.41c-1.43-.61-2.66-1.15-5.29-1.15s-3.86.53-5.29,1.15ZM221.76,106.92c2.59,0,3.8.52,5.21,1.13,1.55.67,3.31,1.43,6.66,1.43s5.1-.76,6.66-1.43c1.41-.61,2.62-1.13,5.21-1.13s3.8.52,5.21,1.13c1.55.67,3.31,1.43,6.66,1.43s5.1-.76,6.66-1.43c1.41-.61,2.62-1.13,5.21-1.13s3.8.52,5.21,1.13c1.55.67,3.31,1.43,6.66,1.43s5.1-.76,6.66-1.43c1.41-.61,2.62-1.13,5.21-1.13s3.8.52,5.21,1.13c1.55.67,3.31,1.43,6.66,1.43s5.1-.76,6.66-1.43c1.41-.61,2.62-1.13,5.21-1.13s3.8.52,5.21,1.13c1.55.67,3.31,1.43,6.66,1.43s5.1-.76,6.66-1.43c1.4-.61,2.62-1.13,5.21-1.13s3.8.52,5.21,1.13c.06.02.12.05.17.07.34-1.19.64-2.39.92-3.6-1.47-.63-3.21-1.27-6.3-1.27-3.34,0-5.1.76-6.66,1.43-1.4.61-2.62,1.13-5.21,1.13s-3.8-.52-5.21-1.13c-1.55-.67-3.31-1.43-6.66-1.43s-5.1.76-6.66,1.43c-1.41.61-2.62,1.13-5.21,1.13s-3.8-.52-5.21-1.13c-1.55-.67-3.31-1.43-6.66-1.43s-5.1.76-6.66,1.43c-1.41.61-2.62,1.13-5.21,1.13s-3.8-.52-5.21-1.13c-1.55-.67-3.31-1.43-6.66-1.43s-5.1.76-6.66,1.43c-1.41.61-2.62,1.13-5.21,1.13s-3.8-.52-5.21-1.13c-1.55-.67-3.31-1.43-6.66-1.43s-5.1.76-6.66,1.43c-1.41.61-2.62,1.13-5.21,1.13s-3.8-.52-5.21-1.13c-1.55-.67-3.31-1.43-6.66-1.43-3.09,0-4.82.65-6.29,1.27.27,1.21.58,2.41.92,3.6.06-.02.11-.05.17-.07,1.41-.61,2.62-1.13,5.21-1.13ZM226.88,120.15c1.57.68,3.35,1.45,6.74,1.45s5.17-.77,6.74-1.45c1.38-.6,2.58-1.11,5.12-1.11s3.74.51,5.12,1.11c1.57.68,3.35,1.45,6.74,1.45s5.17-.77,6.74-1.45c1.38-.6,2.58-1.11,5.12-1.11s3.74.51,5.12,1.11c1.57.68,3.35,1.45,6.74,1.45s5.17-.77,6.74-1.45c1.38-.6,2.58-1.11,5.12-1.11s3.74.51,5.12,1.11c1.57.68,3.35,1.45,6.74,1.45s5.17-.77,6.74-1.45c1.38-.6,2.58-1.11,5.12-1.11s3.74.51,5.12,1.11c1.57.68,3.35,1.45,6.74,1.45s5.17-.77,6.74-1.45c1.38-.6,2.58-1.11,5.12-1.11.43,0,.82.02,1.18.04.62-1.28,1.21-2.58,1.75-3.91-.83-.14-1.79-.23-2.94-.23-3.39,0-5.17.77-6.74,1.45-1.38.6-2.58,1.11-5.12,1.11s-3.74-.51-5.12-1.11c-1.57-.68-3.35-1.45-6.74-1.45s-5.17.77-6.74,1.45c-1.38.6-2.58,1.11-5.12,1.11s-3.74-.51-5.12-1.11c-1.57-.68-3.35-1.45-6.74-1.45s-5.17.77-6.74,1.45c-1.38.6-2.58,1.11-5.12,1.11s-3.74-.51-5.12-1.11c-1.57-.68-3.35-1.45-6.74-1.45s-5.17.77-6.74,1.45c-1.38.6-2.58,1.11-5.12,1.11s-3.74-.51-5.12-1.11c-1.57-.68-3.35-1.45-6.74-1.45s-5.17.77-6.74,1.45c-1.38.6-2.58,1.11-5.12,1.11s-3.74-.51-5.12-1.11c-1.57-.68-3.35-1.45-6.74-1.45-1.14,0-2.1.09-2.93.23.54,1.32,1.13,2.63,1.75,3.91.36-.03.75-.04,1.18-.04,2.54,0,3.74.51,5.12,1.11ZM240.45,132.26c1.36-.59,2.54-1.09,5.04-1.09s3.68.51,5.04,1.09c1.59.69,3.39,1.46,6.83,1.46s5.24-.78,6.83-1.46c1.36-.59,2.54-1.09,5.04-1.09s3.68.51,5.04,1.09c1.59.69,3.39,1.46,6.83,1.46s5.24-.78,6.83-1.46c1.36-.59,2.54-1.09,5.04-1.09s3.68.51,5.04,1.09c1.59.69,3.39,1.46,6.83,1.46s5.24-.78,6.83-1.46c1.36-.59,2.54-1.09,5.04-1.09s3.68.51,5.04,1.09c1.59.69,3.39,1.46,6.83,1.46,1.51,0,2.7-.15,3.69-.37,1.74-2.04,3.36-4.18,4.85-6.41-1.47.29-2.53.74-3.51,1.17-1.36.59-2.54,1.09-5.04,1.09s-3.68-.51-5.04-1.09c-1.59-.69-3.39-1.46-6.83-1.46s-5.24.78-6.83,1.46c-1.36.59-2.54,1.09-5.04,1.09s-3.68-.51-5.04-1.09c-1.59-.69-3.39-1.46-6.83-1.46s-5.24.78-6.83,1.46c-1.36.59-2.54,1.09-5.04,1.09s-3.68-.51-5.04-1.09c-1.59-.69-3.39-1.46-6.83-1.46s-5.24.78-6.83,1.46c-1.36.59-2.54,1.09-5.04,1.09s-3.68-.51-5.04-1.09c-1.59-.69-3.39-1.46-6.83-1.46s-5.24.78-6.83,1.46c-1.36.59-2.54,1.09-5.04,1.09s-3.68-.51-5.04-1.09c-.98-.42-2.04-.88-3.5-1.17,1.49,2.23,3.11,4.37,4.85,6.41,1,.23,2.19.37,3.69.37,3.43,0,5.24-.78,6.83-1.46ZM250.44,144.37c1.61.69,3.43,1.48,6.91,1.48s5.3-.79,6.91-1.48c1.4-.6,2.5-1.08,4.95-1.08s3.56.47,4.95,1.08c1.61.69,3.44,1.48,6.91,1.48s5.3-.79,6.91-1.48c1.39-.6,2.5-1.08,4.95-1.08s3.56.47,4.95,1.08c1.61.69,3.43,1.48,6.91,1.48s5.3-.79,6.91-1.48c1.39-.6,2.5-1.08,4.95-1.08,1.92,0,3.02.29,4.07.71,1.53-1.12,3.02-2.31,4.45-3.55-.56-.18-1.06-.39-1.61-.63-1.61-.69-3.43-1.48-6.91-1.48s-5.3.79-6.91,1.48c-1.39.6-2.5,1.08-4.95,1.08s-3.56-.47-4.95-1.08c-1.61-.69-3.43-1.48-6.91-1.48s-5.3.79-6.91,1.48c-1.39.6-2.5,1.08-4.95,1.08s-3.56-.47-4.95-1.08c-1.61-.69-3.44-1.48-6.91-1.48s-5.3.79-6.91,1.48c-1.39.6-2.5,1.08-4.95,1.08s-3.56-.47-4.95-1.08c-1.61-.69-3.43-1.48-6.91-1.48s-5.3.79-6.91,1.48c-.55.24-1.05.45-1.61.63,1.43,1.24,2.92,2.43,4.45,3.55,1.05-.41,2.15-.71,4.07-.71,2.46,0,3.56.47,4.95,1.08ZM287.78,156.6c.1-.04.2-.08.29-.13,1.37-.59,2.46-1.06,4.87-1.06.72,0,1.32.04,1.84.12,3.48-.72,6.85-1.71,10.11-2.94-.03,0-.06,0-.09,0-2.41,0-3.5-.47-4.87-1.06-1.63-.7-3.48-1.5-7-1.5s-5.37.8-7,1.5c-1.37.59-2.46,1.06-4.87,1.06s-3.49-.47-4.87-1.06c-1.63-.7-3.48-1.5-7-1.5s-5.37.8-7,1.5c-1.37.59-2.46,1.06-4.87,1.06-.03,0-.06,0-.09,0,3.26,1.23,6.63,2.22,10.11,2.94.53-.07,1.13-.12,1.84-.12,2.41,0,3.49.47,4.87,1.06.1.04.19.08.29.13,2.14.21,4.31.32,6.5.33h.4c2.19,0,4.36-.12,6.5-.33Z"/>
    <path class="cls-1" d="M281.19,18.82l65.26,65.37h-24.8c-9.25-.59-19.07-3.54-24.55-11.49-.55-.79-1.39-2.1-1.72-2.98-.08-.22-.1-.41-.09-.64h-28.25c-2.32,5.65-7.26,9.82-12.83,12.14-4.35,1.81-9.01,2.63-13.7,2.97h-24.8v-.12l65.26-65.26h.22ZM296.19,64.38h-30.22l.45,2.35h28.88l.9-2.35ZM271.79,76.13s6.78,4.27,9.35,4.27,9.35-4.27,9.35-4.27h-18.69ZM267.98,71.43l1.57,2.29,22.88.05c.14-.02.25-.05.37-.14.16-.13,1.1-1.57,1.24-1.84.07-.13.18-.2.14-.37h-26.19Z"/>
    <path class="cls-1" d="M281.08,178.64c-49.25,0-89.32-40.07-89.32-89.32S231.83,0,281.08,0s89.32,40.07,89.32,89.32-40.07,89.32-89.32,89.32ZM281.08,9.27c-44.14,0-80.05,35.91-80.05,80.05s35.91,80.05,80.05,80.05,80.05-35.91,80.05-80.05S325.21,9.27,281.08,9.27Z"/>
  </g>
  <g>
    <path class="cls-1" d="M37.37,251.76h-8.75v-18.05H8.75v18.05H0v-44.43h8.75v17.93h19.86v-17.93h8.75v44.43Z"/>
    <path class="cls-1" d="M49.17,218.32c2.03-3.5,4.79-6.29,8.27-8.36,3.48-2.07,7.25-3.11,11.32-3.11s7.84,1.04,11.32,3.11c3.48,2.07,6.26,4.86,8.33,8.36,2.07,3.5,3.11,7.26,3.11,11.29s-1.04,7.89-3.11,11.35c-2.07,3.46-4.85,6.21-8.33,8.24-3.48,2.03-7.25,3.05-11.32,3.05s-7.89-1.02-11.35-3.05c-3.46-2.03-6.21-4.78-8.24-8.24-2.03-3.46-3.05-7.24-3.05-11.35s1.02-7.79,3.05-11.29ZM57.02,236.73c1.23,2.17,2.9,3.89,5.01,5.16,2.11,1.27,4.46,1.9,7.03,1.9s4.77-.63,6.82-1.9c2.05-1.27,3.66-2.98,4.83-5.13,1.17-2.15,1.75-4.54,1.75-7.15s-.6-5.07-1.81-7.24c-1.21-2.17-2.85-3.89-4.92-5.16-2.07-1.27-4.38-1.9-6.91-1.9s-4.84.63-6.91,1.9c-2.07,1.27-3.71,2.99-4.92,5.16-1.21,2.17-1.81,4.59-1.81,7.24s.61,4.95,1.84,7.12Z"/>
    <path class="cls-1" d="M140.3,207.33v46.24h-.24l-31.09-28.07.18,26.26h-8.87v-46.18h.36l31.03,28.49-.18-26.74h8.81Z"/>
    <path class="cls-1" d="M182.07,207.33v8.45h-21.55v9.48h19.08v8.45h-19.08v9.6h22.4v8.45h-31.15v-44.43h30.31Z"/>
    <path class="cls-1" d="M228.92,207.33l-16.66,30.61v13.82h-8.75v-13.82l-16.36-30.61h10.81l10.2,20.53,9.96-20.53h10.81Z"/>
    <path class="cls-1" d="M282.47,251.76l-3.26-4.35c-1.33,1.57-3,2.81-5.01,3.71-2.01.91-4.39,1.36-7.12,1.36s-5.3-.58-7.58-1.75c-2.27-1.17-4.07-2.79-5.37-4.86-1.31-2.07-1.96-4.42-1.96-7.03,0-2.98,1.04-5.66,3.11-8.06,2.07-2.39,4.66-4.11,7.76-5.16l-.12-.18c-.93-1.21-1.78-2.66-2.57-4.35-.78-1.69-1.18-3.36-1.18-5.01s.43-3.33,1.3-4.92c.87-1.59,2.17-2.9,3.92-3.92s3.85-1.54,6.31-1.54c2.7,0,5.14.55,7.33,1.66,2.19,1.11,3.99,2.55,5.4,4.32l-4.41,5.86c-1.37-1.45-2.61-2.56-3.71-3.32-1.11-.76-2.18-1.15-3.23-1.15-1.29,0-2.25.37-2.9,1.12-.64.75-.97,1.66-.97,2.75s.68,2.72,2.05,4.77l8.03,10.81,3.02-7.79h7.97l-5.86,14.73,9.18,12.32h-10.14ZM274.68,241.32l-7.24-9.72c-1.77.16-3.25.91-4.44,2.23-1.19,1.33-1.78,2.84-1.78,4.53,0,1.85.67,3.36,2.02,4.53,1.35,1.17,3.03,1.75,5.04,1.75,2.9,0,5.03-1.11,6.4-3.32Z"/>
    <path class="cls-1" d="M356.84,251.76h-8.75v-18.05h-19.86v18.05h-8.75v-44.43h8.75v17.93h19.86v-17.93h8.75v44.43Z"/>
    <path class="cls-1" d="M405.25,207.33l-16.66,30.61v13.82h-8.75v-13.82l-16.36-30.61h10.81l10.2,20.53,9.96-20.53h10.81Z"/>
    <path class="cls-1" d="M423.43,214.88c-1.93,0-3.43.38-4.5,1.15-1.07.77-1.6,1.91-1.6,3.44,0,1.41.77,2.65,2.32,3.71,1.55,1.07,3.61,2.08,6.19,3.05,2.09.77,3.88,1.64,5.37,2.63,1.49.99,2.73,2.35,3.71,4.07.99,1.73,1.48,3.92,1.48,6.58,0,2.29-.59,4.42-1.78,6.37-1.19,1.95-2.93,3.5-5.22,4.65-2.29,1.15-5.03,1.72-8.21,1.72-2.66,0-5.29-.39-7.91-1.18s-5.05-1.98-7.3-3.59l3.86-6.82c1.53,1.13,3.28,2.05,5.25,2.78,1.97.72,3.74,1.09,5.31,1.09,1.85,0,3.46-.39,4.83-1.18,1.37-.79,2.05-2.06,2.05-3.83,0-2.29-2.15-4.29-6.46-5.98-2.54-1.01-4.65-1.97-6.34-2.9-1.69-.93-3.15-2.25-4.38-3.98-1.23-1.73-1.84-3.9-1.84-6.52,0-3.82,1.26-6.9,3.77-9.24,2.51-2.33,5.87-3.6,10.05-3.8,3.3,0,6.06.37,8.27,1.12,2.21.75,4.37,1.8,6.46,3.17l-3.32,6.7c-3.86-2.13-7.22-3.2-10.08-3.2Z"/>
    <path class="cls-1" d="M458.62,214.88c-1.93,0-3.43.38-4.5,1.15-1.07.77-1.6,1.91-1.6,3.44,0,1.41.77,2.65,2.32,3.71,1.55,1.07,3.61,2.08,6.19,3.05,2.09.77,3.88,1.64,5.37,2.63,1.49.99,2.73,2.35,3.71,4.07.99,1.73,1.48,3.92,1.48,6.58,0,2.29-.59,4.42-1.78,6.37-1.19,1.95-2.93,3.5-5.22,4.65-2.29,1.15-5.03,1.72-8.21,1.72-2.66,0-5.29-.39-7.91-1.18s-5.05-1.98-7.3-3.59l3.86-6.82c1.53,1.13,3.28,2.05,5.25,2.78,1.97.72,3.74,1.09,5.31,1.09,1.85,0,3.46-.39,4.83-1.18,1.37-.79,2.05-2.06,2.05-3.83,0-2.29-2.15-4.29-6.46-5.98-2.54-1.01-4.65-1.97-6.34-2.9-1.69-.93-3.15-2.25-4.38-3.98-1.23-1.73-1.84-3.9-1.84-6.52,0-3.82,1.26-6.9,3.77-9.24,2.51-2.33,5.87-3.6,10.05-3.8,3.3,0,6.06.37,8.27,1.12,2.21.75,4.37,1.8,6.46,3.17l-3.32,6.7c-3.86-2.13-7.22-3.2-10.08-3.2Z"/>
    <path class="cls-1" d="M480.5,218.32c2.03-3.5,4.79-6.29,8.27-8.36,3.48-2.07,7.25-3.11,11.32-3.11s7.84,1.04,11.32,3.11c3.48,2.07,6.26,4.86,8.33,8.36,2.07,3.5,3.11,7.26,3.11,11.29s-1.04,7.89-3.11,11.35c-2.07,3.46-4.85,6.21-8.33,8.24-3.48,2.03-7.25,3.05-11.32,3.05s-7.89-1.02-11.35-3.05c-3.46-2.03-6.21-4.78-8.24-8.24-2.03-3.46-3.05-7.24-3.05-11.35s1.02-7.79,3.05-11.29ZM488.35,236.73c1.23,2.17,2.9,3.89,5.01,5.16,2.11,1.27,4.46,1.9,7.03,1.9s4.77-.63,6.82-1.9c2.05-1.27,3.66-2.98,4.83-5.13,1.17-2.15,1.75-4.54,1.75-7.15s-.6-5.07-1.81-7.24-2.85-3.89-4.92-5.16c-2.07-1.27-4.38-1.9-6.91-1.9s-4.84.63-6.91,1.9c-2.07,1.27-3.71,2.99-4.92,5.16-1.21,2.17-1.81,4.59-1.81,7.24s.61,4.95,1.84,7.12Z"/>
    <path class="cls-1" d="M557.69,211.34c2.98,2.68,4.47,6.33,4.47,10.96,0,2.66-.51,5.14-1.54,7.46-1.03,2.31-2.7,4.22-5.01,5.7-2.31,1.49-5.3,2.23-8.96,2.23h-6.28v14.07h-8.75v-44.43h13.46c5.43,0,9.64,1.34,12.62,4.01ZM550.56,228.07c1-.74,1.73-1.62,2.17-2.63.44-1.01.66-1.97.66-2.9,0-1.57-.46-3.09-1.39-4.56-.93-1.47-2.72-2.2-5.37-2.2h-6.28v13.4h6.22c1.65,0,2.98-.37,3.98-1.12Z"/>
  </g>
</svg>